<?xml version="1.0" encoding="UTF-8"?>
<svg xmlns="http://www.w3.org/2000/svg" width="1400" height="900" viewBox="0 0 1400 900">
  <defs>
    <linearGradient id="titleBand" x1="0" y1="0" x2="1" y2="0">
      <stop offset="0" stop-color="#173B57"/>
      <stop offset="1" stop-color="#2C6388"/>
    </linearGradient>
    <filter id="shadow" x="-10%" y="-10%" width="120%" height="120%">
      <feDropShadow dx="0" dy="5" stdDeviation="7" flood-color="#12334A" flood-opacity="0.18"/>
    </filter>
  </defs>
  <rect width="1400" height="900" fill="#F5F8FB"/>
  <rect x="55" y="45" width="1290" height="810" rx="24" fill="#FFFFFF" stroke="#B9C9D6" stroke-width="2" filter="url(#shadow)"/>
  <rect x="55" y="45" width="1290" height="120" rx="24" fill="url(#titleBand)"/>
  <path d="M55 140h1290v25H55z" fill="url(#titleBand)"/>
  <text x="105" y="101" fill="#FFFFFF" font-family="Arial, sans-serif" font-size="38" font-weight="700">Saved SMS Text Classifier — Primary Hold-out Metrics</text>
  <text x="105" y="140" fill="#DCEAF4" font-family="Arial, sans-serif" font-size="22">Positive class: spam (1)  •  Test records: 1,115  •  Evaluation date: 11 August 2026</text>

  <g font-family="Arial, sans-serif">
    <line x1="210" y1="690" x2="1250" y2="690" stroke="#70899D" stroke-width="2"/>
    <line x1="210" y1="240" x2="210" y2="690" stroke="#70899D" stroke-width="2"/>
    <g fill="#5D7384" font-size="18" text-anchor="end">
      <text x="190" y="696">0%</text>
      <text x="190" y="606">20%</text>
      <text x="190" y="516">40%</text>
      <text x="190" y="426">60%</text>
      <text x="190" y="336">80%</text>
      <text x="190" y="246">100%</text>
    </g>
    <g stroke="#D8E2EA" stroke-width="1">
      <line x1="210" y1="600" x2="1250" y2="600"/>
      <line x1="210" y1="510" x2="1250" y2="510"/>
      <line x1="210" y1="420" x2="1250" y2="420"/>
      <line x1="210" y1="330" x2="1250" y2="330"/>
      <line x1="210" y1="240" x2="1250" y2="240"/>
    </g>

    <g>
      <rect x="285" y="247.7" width="165" height="442.3" rx="10" fill="#187A66"/>
      <rect x="525" y="267.4" width="165" height="422.6" rx="10" fill="#24658D"/>
      <rect x="765" y="270.2" width="165" height="419.8" rx="10" fill="#B36B12"/>
      <rect x="1005" y="268.8" width="165" height="421.2" rx="10" fill="#704E91"/>
    </g>
    <g font-size="28" font-weight="700" text-anchor="middle">
      <text x="367.5" y="228" fill="#187A66">98.30%</text>
      <text x="607.5" y="248" fill="#24658D">93.92%</text>
      <text x="847.5" y="251" fill="#B36B12">93.29%</text>
      <text x="1087.5" y="249" fill="#704E91">93.60%</text>
    </g>
    <g fill="#1D3140" font-size="24" font-weight="700" text-anchor="middle">
      <text x="367.5" y="735">Accuracy</text>
      <text x="607.5" y="735">Precision</text>
      <text x="847.5" y="735">Recall</text>
      <text x="1087.5" y="735">F1-score</text>
    </g>
    <text x="730" y="795" fill="#526A7B" font-size="20" text-anchor="middle">Classifier-only result on the documented stratified random split; not a complete hybrid-system metric.</text>
    <text x="730" y="825" fill="#526A7B" font-size="18" text-anchor="middle">Source: reproducible repository evidence in report/evidence/chapter_four_sms_evaluation.json</text>
  </g>
</svg>
